<svg xmlns="http://www.w3.org/2000/svg" viewBox="0 0 32 32">
  <defs>
    <linearGradient id="g" x1="0" y1="0" x2="1" y2="1">
      <stop offset="0%" stop-color="#f59e0b"/>
      <stop offset="55%" stop-color="#ea580c"/>
      <stop offset="100%" stop-color="#db2777"/>
    </linearGradient>
  </defs>
  <rect width="32" height="32" rx="7" fill="url(#g)"/>
  <g fill="none" stroke="#fff" stroke-width="1.8" stroke-linecap="round" stroke-linejoin="round">
    <path d="M6 8.5A2 2 0 0 1 8 6.5h7v18H8a2 2 0 0 1-2-2z"/>
    <path d="M15 6.5h9a2 2 0 0 1 2 2v14a2 2 0 0 1-2 2h-9z"/>
    <line x1="9" y1="11" x2="13" y2="11"/>
    <line x1="9" y1="14" x2="13" y2="14"/>
    <line x1="9" y1="17" x2="13" y2="17"/>
    <line x1="17" y1="11" x2="23" y2="11"/>
    <line x1="17" y1="14" x2="23" y2="14"/>
    <line x1="17" y1="17" x2="23" y2="17"/>
  </g>
</svg>
